<mxfile host="app.diagrams.net" modified="2022-03-31T16:44:58.147Z" agent="5.0 (Windows NT 10.0; Win64; x64) AppleWebKit/537.36 (KHTML, like Gecko) Chrome/99.0.4844.74 Safari/537.36 Edg/99.0.1150.55" etag="puKSApM05Yi8U_xc3irB" version="17.3.0" type="github" pages="2">
  <diagram name="Page-1" id="7a6c530e-6e37-e111-ec74-82921da8cc10">
    <mxGraphModel dx="1550" dy="827" grid="1" gridSize="10" guides="1" tooltips="1" connect="1" arrows="1" fold="1" page="1" pageScale="1.5" pageWidth="1169" pageHeight="826" background="none" math="0" shadow="0">
      <root>
        <mxCell id="0" style=";html=1;" />
        <mxCell id="1" style=";html=1;" parent="0" />
        <mxCell id="23046e2b9bb16c14-116" value="Azure" style="whiteSpace=wrap;html=1;rounded=1;shadow=0;strokeColor=none;strokeWidth=2;fillColor=#009BFF;fontSize=20;fontColor=#FFFFFF;align=center;arcSize=3;verticalAlign=top;spacingTop=4;" parent="1" vertex="1">
          <mxGeometry x="350" y="217" width="930" height="503" as="geometry" />
        </mxCell>
        <mxCell id="nsKi_y4JRF-k8XJSPIKG-8" value="" style="rounded=1;whiteSpace=wrap;html=1;labelBackgroundColor=none;fillColor=#dae8fc;strokeColor=#6c8ebf;" vertex="1" parent="1">
          <mxGeometry x="483" y="310" width="677" height="370" as="geometry" />
        </mxCell>
        <mxCell id="nsKi_y4JRF-k8XJSPIKG-7" value="" style="verticalLabelPosition=bottom;html=1;verticalAlign=top;align=center;strokeColor=none;fillColor=#00BEF2;shape=mxgraph.azure.virtual_network;pointerEvents=1;labelBackgroundColor=none;" vertex="1" parent="1">
          <mxGeometry x="483" y="316.25" width="50" height="27.500000000000004" as="geometry" />
        </mxCell>
        <mxCell id="23046e2b9bb16c14-82" value="B" style="text;html=1;strokeColor=none;fillColor=none;align=center;verticalAlign=middle;whiteSpace=wrap;rounded=1;shadow=0;fontSize=11;fontColor=#FFFFFF;fontStyle=1" parent="1" vertex="1">
          <mxGeometry x="1226" y="678" width="20" height="20" as="geometry" />
        </mxCell>
        <mxCell id="23046e2b9bb16c14-83" value="C" style="text;html=1;strokeColor=none;fillColor=none;align=center;verticalAlign=middle;whiteSpace=wrap;rounded=1;shadow=0;fontSize=11;fontColor=#FFFFFF;fontStyle=1" parent="1" vertex="1">
          <mxGeometry x="1406" y="680" width="20" height="20" as="geometry" />
        </mxCell>
        <mxCell id="23046e2b9bb16c14-113" value="Title" style="text;strokeColor=none;fillColor=none;html=1;fontSize=24;fontStyle=1;verticalAlign=middle;align=center;rounded=0;shadow=0;fontColor=#FFFFFF;" parent="1" vertex="1">
          <mxGeometry x="120" y="40" width="1510" height="40" as="geometry" />
        </mxCell>
        <mxCell id="23046e2b9bb16c14-115" value="&lt;h1&gt;Heading&lt;/h1&gt;&lt;p&gt;Lorem ipsum dolor sit amet, consectetur adipisicing elit, sed do eiusmod tempor incididunt ut labore et dolore magna aliqua.&lt;/p&gt;" style="text;html=1;strokeColor=none;fillColor=none;spacing=5;spacingTop=-20;whiteSpace=wrap;overflow=hidden;rounded=0;shadow=0;fontSize=10;fontColor=#FFFFFF;align=left;" parent="1" vertex="1">
          <mxGeometry x="323" y="952" width="1041" height="70" as="geometry" />
        </mxCell>
        <mxCell id="nsKi_y4JRF-k8XJSPIKG-3" value="" style="aspect=fixed;html=1;points=[];align=center;image;fontSize=12;image=img/lib/azure2/databases/Azure_SQL_VM.svg;labelBackgroundColor=none;" vertex="1" parent="1">
          <mxGeometry x="840" y="420" width="85.33" height="80" as="geometry" />
        </mxCell>
        <mxCell id="nsKi_y4JRF-k8XJSPIKG-5" value="" style="sketch=0;aspect=fixed;html=1;points=[];align=center;image;fontSize=12;image=img/lib/mscae/Virtual_Machine.svg;labelBackgroundColor=none;" vertex="1" parent="1">
          <mxGeometry x="590" y="420" width="88.59" height="81.5" as="geometry" />
        </mxCell>
      </root>
    </mxGraphModel>
  </diagram>
  <diagram id="rq4rBTRSF2qwSIcOQvEY" name="Page-2">
    <mxGraphModel dx="1550" dy="827" grid="1" gridSize="10" guides="1" tooltips="1" connect="1" arrows="1" fold="1" page="1" pageScale="1" pageWidth="850" pageHeight="1100" math="0" shadow="0">
      <root>
        <mxCell id="0" />
        <mxCell id="1" parent="0" />
        <mxCell id="hG09qb5Bv3ZWxpNKzHlK-1" value="Azure Region" style="whiteSpace=wrap;html=1;rounded=1;shadow=0;strokeColor=none;strokeWidth=2;fillColor=#009BFF;fontSize=20;fontColor=#FFFFFF;align=center;arcSize=3;verticalAlign=top;spacingTop=4;" vertex="1" parent="1">
          <mxGeometry x="350" y="250" width="730" height="470" as="geometry" />
        </mxCell>
        <mxCell id="hG09qb5Bv3ZWxpNKzHlK-2" value="" style="rounded=1;whiteSpace=wrap;html=1;shadow=0;strokeWidth=2;fillColor=#8BC63E;fontSize=12;fontColor=#000000;align=center;strokeColor=none;arcSize=3;" vertex="1" parent="1">
          <mxGeometry x="370" y="291" width="700" height="420" as="geometry" />
        </mxCell>
        <mxCell id="hG09qb5Bv3ZWxpNKzHlK-4" value="Availability Set" style="aspect=fixed;html=1;points=[];align=center;image;fontSize=12;image=img/lib/azure2/compute/Availability_Sets.svg;imageBackground=none;labelBackgroundColor=none;" vertex="1" parent="1">
          <mxGeometry x="383" y="300" width="60" height="60" as="geometry" />
        </mxCell>
        <mxCell id="hG09qb5Bv3ZWxpNKzHlK-7" value="Fault Domain 1" style="rounded=1;whiteSpace=wrap;html=1;labelBackgroundColor=none;fillColor=#dae8fc;strokeColor=#6c8ebf;horizontal=1;verticalAlign=top;fontSize=17;" vertex="1" parent="1">
          <mxGeometry x="473" y="328" width="187" height="370" as="geometry" />
        </mxCell>
        <mxCell id="NnhXmebvV8iGoI0qbbEq-1" value="" style="aspect=fixed;html=1;points=[];align=center;image;fontSize=12;image=img/lib/azure2/databases/Azure_SQL_VM.svg;labelBackgroundColor=none;" vertex="1" parent="1">
          <mxGeometry x="523.83" y="520" width="85.33" height="80" as="geometry" />
        </mxCell>
        <mxCell id="NnhXmebvV8iGoI0qbbEq-2" value="" style="sketch=0;aspect=fixed;html=1;points=[];align=center;image;fontSize=12;image=img/lib/mscae/Virtual_Machine.svg;labelBackgroundColor=none;" vertex="1" parent="1">
          <mxGeometry x="522.21" y="394.5" width="88.59" height="81.5" as="geometry" />
        </mxCell>
        <mxCell id="NnhXmebvV8iGoI0qbbEq-5" value="Fault Domain 2" style="rounded=1;whiteSpace=wrap;html=1;labelBackgroundColor=none;fillColor=#dae8fc;strokeColor=#6c8ebf;horizontal=1;verticalAlign=top;fontSize=17;" vertex="1" parent="1">
          <mxGeometry x="670" y="328" width="187" height="370" as="geometry" />
        </mxCell>
        <mxCell id="NnhXmebvV8iGoI0qbbEq-6" value="Fault Domain 3" style="rounded=1;whiteSpace=wrap;html=1;labelBackgroundColor=none;fillColor=#dae8fc;strokeColor=#6c8ebf;horizontal=1;verticalAlign=top;fontSize=17;" vertex="1" parent="1">
          <mxGeometry x="865" y="328" width="187" height="370" as="geometry" />
        </mxCell>
        <mxCell id="NnhXmebvV8iGoI0qbbEq-7" value="" style="sketch=0;aspect=fixed;html=1;points=[];align=center;image;fontSize=12;image=img/lib/mscae/Virtual_Machine.svg;labelBackgroundColor=none;" vertex="1" parent="1">
          <mxGeometry x="719.2" y="394.5" width="88.59" height="81.5" as="geometry" />
        </mxCell>
        <mxCell id="NnhXmebvV8iGoI0qbbEq-8" value="" style="aspect=fixed;html=1;points=[];align=center;image;fontSize=12;image=img/lib/azure2/databases/Azure_SQL_VM.svg;labelBackgroundColor=none;" vertex="1" parent="1">
          <mxGeometry x="720.83" y="520" width="85.33" height="80" as="geometry" />
        </mxCell>
        <mxCell id="NnhXmebvV8iGoI0qbbEq-9" value="" style="sketch=0;aspect=fixed;html=1;points=[];align=center;image;fontSize=12;image=img/lib/mscae/Virtual_Machine.svg;labelBackgroundColor=none;" vertex="1" parent="1">
          <mxGeometry x="914.21" y="394.5" width="88.59" height="81.5" as="geometry" />
        </mxCell>
        <mxCell id="NnhXmebvV8iGoI0qbbEq-10" value="" style="aspect=fixed;html=1;points=[];align=center;image;fontSize=12;image=img/lib/azure2/databases/Azure_SQL_VM.svg;labelBackgroundColor=none;" vertex="1" parent="1">
          <mxGeometry x="915.84" y="520" width="85.33" height="80" as="geometry" />
        </mxCell>
      </root>
    </mxGraphModel>
  </diagram>
</mxfile>
